# xmcd
#
# Track frame offsets:
#	150
#	23089
#	46160
#	69698
#	84730
#	106000
#	121047
#	142866
#	158071
#	173073
#	191710
#	211246
#	232223
#	251004
#	268220
#
# Disc length: 3824
#
# Revision: 1
# Processed by: cddbd v1.5.1PL0 Copyright (c) Steve Scherf et al.
# Submitted via: audiograbber 1.80
# Normalized: r0:DSETVAR1
#
DISCID=cb0eee0f
DTITLE=Various Artist - Greatest Hits Of Soul And R&B Disk 7
DYEAR=1900
DGENRE=
TTITLE0=Kool and The Gang - (Jump On The) Rhythm And Ride
TTITLE1=Ashford and Spimpson - Solid
TTITLE2=James Brown - Body Heat (Live)
TTITLE3=Gene Chandler - Get Down
TTITLE4=The Jungle Band - Full Speed Ahead
TTITLE5=Joe Tex - Give The Baby Anything That The Baby Wants
TTITLE6=Sly and The Family Stone - Shine It On
TTITLE7=Minnie Riperton - Loving You
TTITLE8=Percy Sledge - I'll Be Your Everything
TTITLE9=James Brown and The JB's - Stay With Me
TTITLE10=Minneapolis Genius 94 East and Prince - Lovin' Cup
TTITLE11=L.J. Reynolds - Ain't No Woman Like My Baby
TTITLE12=Phyllis Nelson - Move Closer
TTITLE13=KC and The Sunshine Band - Please Don't Go
TTITLE14=Kenny Thomas - Tender Love
EXTD=
EXTT0=
EXTT1=
EXTT2=
EXTT3=
EXTT4=
EXTT5=
EXTT6=
EXTT7=
EXTT8=
EXTT9=
EXTT10=
EXTT11=
EXTT12=
EXTT13=
EXTT14=
PLAYORDER=
